<svg width="175" height="17" viewBox="0 0 175 17" fill="none" xmlns="http://www.w3.org/2000/svg">
<path d="M164.267 1.68652H156.923V14.6172H164.267V1.68652Z" fill="#F26122"/>
<path d="M157.719 8.15183C157.705 5.65763 158.87 3.29563 160.877 1.74423C157.442 -0.883989 152.508 -0.502329 149.543 2.62083C146.578 5.74413 146.578 10.5599 149.543 13.6832C152.508 16.8061 157.442 17.1881 160.877 14.5595C158.87 13.0084 157.705 10.6464 157.719 8.15183Z" fill="#EA1D25"/>
<path d="M174.436 8.15177C174.433 11.2728 172.602 14.1192 169.717 15.4833C166.833 16.8474 163.401 16.4906 160.877 14.5642C164.512 11.7793 165.141 6.65627 162.284 3.11627C161.874 2.60357 161.402 2.14149 160.877 1.74004C163.401 -0.186617 166.833 -0.543566 169.717 0.820664C172.602 2.1849 174.433 5.03127 174.436 8.15177Z" fill="#F69E1E"/>
<path fill-rule="evenodd" clip-rule="evenodd" d="M119.295 11.6485C119.305 9.12762 117.221 8.03922 115.603 7.19352C114.579 6.65872 113.742 6.22132 113.742 5.58062C113.742 5.03452 114.272 4.45632 115.4 4.30702C116.741 4.17472 118.094 4.40902 119.311 4.98542L120.008 1.67841C118.821 1.23433 117.563 1.00473 116.295 1C112.383 1 109.664 3.08342 109.664 6.05972C109.664 8.25932 111.637 9.48292 113.129 10.2104C114.621 10.938 115.201 11.4501 115.184 12.1115C115.184 13.1367 113.958 13.5996 112.814 13.6166C111.403 13.6346 110.011 13.2935 108.769 12.6245L108.056 15.9315C109.461 16.4786 110.958 16.7536 112.466 16.7413C116.626 16.7413 119.362 14.6909 119.378 11.5162L119.295 11.6485ZM108.537 1.26551L105.222 16.5599H101.244L104.559 1.26551H108.537ZM125.213 11.1855L127.301 5.44842L128.512 11.1855H125.213ZM133.319 16.6099H129.639L129.158 14.3281H124.169L123.356 16.6099H119.179L125.13 2.43902C125.404 1.76439 126.057 1.32125 126.788 1.31464H130.103L133.319 16.6099ZM96.5188 16.5098L102.951 1.21543H98.6408L94.5138 11.6154L92.8558 2.76972C92.7088 1.87021 91.9288 1.21165 91.0158 1.21543H84.2698L84.1698 1.6614C85.5228 1.92596 86.8378 2.35871 88.0818 2.95112C88.6118 3.19962 88.9708 3.70892 89.0268 4.29092L92.1928 16.5098H96.5188Z" fill="#212B36"/>
<g clip-path="url(#clip0_1730_358)">
<path fill-rule="evenodd" clip-rule="evenodd" d="M6.12295 4.00195H10.9179C13.4923 4.00195 14.4614 5.30527 14.3117 7.22001C14.0641 10.3811 12.1531 12.13 9.61826 12.13H8.33846C7.99066 12.13 7.75673 12.3602 7.66267 12.984L7.11931 16.6105C7.08342 16.8457 6.95965 16.9819 6.77399 17.0004H3.76139C3.47795 17.0004 3.3777 16.7838 3.45196 16.3147L5.28873 4.68889C5.36052 4.22351 5.61549 4.00195 6.12295 4.00195Z" fill="#009EE3"/>
<path fill-rule="evenodd" clip-rule="evenodd" d="M26.9401 3.78613C28.5578 3.78613 30.0504 4.66367 29.8462 6.85071C29.5987 9.44991 28.2063 10.8881 26.0093 10.8943H24.0896C23.8136 10.8943 23.6799 11.1196 23.6081 11.5813L23.2368 13.9416C23.1811 14.298 22.9979 14.4738 22.7281 14.4738H20.9421C20.6574 14.4738 20.5584 14.2918 20.6215 13.8846L22.0957 4.42479C22.1687 3.95941 22.3432 3.78613 22.6613 3.78613H26.9364H26.9401ZM24.0314 8.85086H25.4858C26.3955 8.8162 26.9995 8.18621 27.0601 7.04998C27.0973 6.3482 26.6232 5.84569 25.8694 5.8494L24.5005 5.85559L24.0314 8.85086ZM34.7018 13.7497C34.8652 13.6012 35.031 13.5245 35.0075 13.7076L34.9493 14.1458C34.9196 14.3748 35.01 14.4961 35.2229 14.4961H36.8096C37.077 14.4961 37.2069 14.3884 37.2725 13.975L38.2503 7.83841C38.2998 7.53022 38.2243 7.37922 37.9904 7.37922H36.2452C36.088 7.37922 36.0113 7.46709 35.9704 7.70721L35.9061 8.08471C35.8727 8.28151 35.7823 8.31617 35.6981 8.11813C35.4023 7.41759 34.6473 7.10321 33.594 7.12796C31.1471 7.17871 29.4972 9.03652 29.3202 11.4179C29.184 13.2596 30.5034 14.7065 32.2437 14.7065C33.5061 14.7065 34.0705 14.3352 34.7067 13.7534L34.7018 13.7497ZM33.3725 12.8054C32.3192 12.8054 31.5852 11.9649 31.7375 10.9352C31.8897 9.90539 32.8749 9.06498 33.9282 9.06498C34.9815 9.06498 35.7155 9.90539 35.5632 10.9352C35.411 11.9649 34.427 12.8054 33.3725 12.8054ZM41.3557 7.35941H39.7467C39.415 7.35941 39.2801 7.60695 39.3853 7.91143L41.383 13.7609L39.4237 16.5445C39.259 16.7772 39.3865 16.9888 39.618 16.9888H41.4263C41.5317 17.001 41.6383 16.9826 41.7336 16.9359C41.8288 16.8892 41.9086 16.816 41.9635 16.7252L48.1075 7.91267C48.2968 7.64161 48.2077 7.35694 47.8971 7.35694H46.1853C45.892 7.35694 45.7744 7.47328 45.6061 7.71711L43.044 11.4303L41.8991 7.70845C41.8323 7.48318 41.6652 7.35941 41.357 7.35941H41.3557Z" fill="#113984"/>
<path fill-rule="evenodd" clip-rule="evenodd" d="M54.499 3.78568C56.1167 3.78568 57.6094 4.66322 57.4052 6.85026C57.1576 9.44946 55.7652 10.8877 53.5683 10.8939H51.6498C51.3738 10.8939 51.2401 11.1191 51.1683 11.5808L50.797 13.9411C50.7413 14.2976 50.5581 14.4733 50.2883 14.4733H48.5023C48.2176 14.4733 48.1186 14.2914 48.1817 13.8842L49.6583 4.42186C49.7313 3.95648 49.9059 3.7832 50.2239 3.7832H54.499V3.78568ZM51.5904 8.8504H53.0447C53.9544 8.81575 54.5584 8.18575 54.6191 7.04953C54.6562 6.34775 54.1822 5.84523 53.4284 5.84895L52.0595 5.85514L51.5904 8.8504ZM62.2607 13.7493C62.4241 13.6008 62.59 13.524 62.5664 13.7072L62.5083 14.1453C62.4786 14.3743 62.5689 14.4956 62.7818 14.4956H64.3686C64.6359 14.4956 64.7659 14.3879 64.8315 13.9745L65.8093 7.83795C65.8588 7.52976 65.7833 7.37876 65.5493 7.37876H63.8066C63.6494 7.37876 63.5727 7.46664 63.5319 7.70676L63.4675 8.08426C63.4341 8.28106 63.3437 8.31571 63.2596 8.11768C62.9638 7.41713 62.2087 7.10275 61.1554 7.12751C58.7085 7.17825 57.0586 9.03606 56.8816 11.4174C56.7455 13.2591 58.0649 14.706 59.8051 14.706C61.0676 14.706 61.632 14.3347 62.2682 13.753L62.2607 13.7493ZM60.9327 12.8049C59.8794 12.8049 59.1454 11.9645 59.2976 10.9347C59.4499 9.90494 60.4351 9.06453 61.4884 9.06453C62.5417 9.06453 63.2757 9.90494 63.1234 10.9347C62.9712 11.9645 61.986 12.8049 60.9327 12.8049ZM68.2513 14.5055H66.4195C66.3876 14.5069 66.3558 14.5013 66.3264 14.489C66.2969 14.4768 66.2706 14.4581 66.2492 14.4345C66.2278 14.4108 66.2119 14.3827 66.2026 14.3522C66.1933 14.3217 66.1908 14.2895 66.1954 14.258L67.8045 4.06417C67.8198 3.9946 67.8583 3.93227 67.9135 3.88733C67.9688 3.84238 68.0377 3.81746 68.1089 3.81662H69.9408C69.9726 3.8152 70.0044 3.82083 70.0338 3.83311C70.0633 3.84539 70.0896 3.86402 70.111 3.88767C70.1324 3.91131 70.1483 3.9394 70.1576 3.96991C70.1669 4.00042 70.1694 4.0326 70.1648 4.06417L68.5557 14.258C68.5409 14.328 68.5026 14.3909 68.4473 14.4363C68.392 14.4818 68.3229 14.507 68.2513 14.508V14.5055Z" fill="#009EE3"/>
<path fill-rule="evenodd" clip-rule="evenodd" d="M3.12427 0H7.92412C9.2757 0 10.8798 0.04332 11.9516 0.990171C12.6683 1.62264 13.0445 2.6289 12.9579 3.71314C12.6633 7.37801 10.4713 9.43138 7.53052 9.43138H5.16402C4.76052 9.43138 4.49441 9.69872 4.38054 10.4215L3.71961 14.6298C3.67629 14.9021 3.5587 15.063 3.34829 15.0828H0.386447C0.0584528 15.0828 -0.0578933 14.8352 0.0275089 14.2882L2.15637 0.799562C2.24178 0.257443 2.54007 0 3.12427 0Z" fill="#113984"/>
<path fill-rule="evenodd" clip-rule="evenodd" d="M4.44958 9.99425L5.28752 4.68817C5.36054 4.22279 5.61551 4 6.12298 4H10.9179C11.7113 4 12.3536 4.12377 12.8561 4.35275C12.3747 7.61536 10.2644 9.42738 7.50179 9.42738H5.13899C4.82214 9.42861 4.58945 9.58704 4.44958 9.99425Z" fill="#172C70"/>
</g>
<defs>
<clipPath id="clip0_1730_358">
<rect width="70.1697" height="17" fill="white"/>
</clipPath>
</defs>
</svg>
